# xmcd CD database file
#
# Track frame offsets:
#	150
#	11736
#	24190
#	38258
#	49693
#	63081
#	77190
#	89932
#	103496
#	117267
#	130939
#	144679
#	156561
#	170744
#	185162
#	199975
#	209655
#	221638
#	232900
#	244605
#	259586
#	271445
#
# Disc length: 3760 seconds
#
# Revision: 2
# Processed by: cddbd v1.5.2PL0 Copyright (c) Steve Scherf et al.
# Submitted via: CDex 1.51
#
DISCID=4c0eae16
DTITLE=DJANGO REINHARDT - SWING FROM PARIS
DYEAR=2003
DGENRE=Jazz
TTITLE0=Swing from Paris
TTITLE1=Lambeth Walk
TTITLE2=Echoes of Spain
TTITLE3=Undecided
TTITLE4=H. C Q. Strut
TTITLE5=Swing 41
TTITLE6=Blues En mineur 
TTITLE7=Studio 24
TTITLE8=Blues En Clair 
TTITLE9=Improvisation
TTITLE10=Coquette
TTITLE11=Django's Tiger
TTITLE12=Embrace you
TTITLE13=Love Melody
TTITLE14=Nuages
TTITLE15=What is that called love
TTITLE16=Ol Man river 
TTITLE17=R-vingt six
TTITLE18=How high the moon
TTITLE19=Lover Man
TTITLE20=Blues 
TTITLE21=Blue LOU
EXTD=YEAR: 2003
EXTT0=
EXTT1=
EXTT2=
EXTT3=
EXTT4=
EXTT5=
EXTT6=
EXTT7=
EXTT8=
EXTT9=
EXTT10=
EXTT11=
EXTT12=
EXTT13=
EXTT14=
EXTT15=
EXTT16=
EXTT17=
EXTT18=
EXTT19=
EXTT20=
EXTT21=
PLAYORDER=
